<svg viewBox="0 0 1200 630" xmlns="http://www.w3.org/2000/svg">
  <rect width="1200" height="630" fill="#F9F6F0"/>
  <circle cx="954" cy="310" r="280" fill="#F12218" opacity=".055"/>
  <svg x="785" y="125" width="379" height="379" viewBox="131 112 768 768">
    <g fill="#101217">
      <path d="M477 193A306 306 0 0 1 538 191L514 272 490 289Z"/>
      <path d="M407 210A306 306 0 0 1 458 196L476 298 467 338 454 327Z"/>
      <path d="M341 243A306 306 0 0 1 388 217L427 301 406 329Z"/>
      <path d="M286 291A306 306 0 0 1 325 254L415 364 391 382Z"/>
      <path d="M241 353A306 306 0 0 1 273 305L340 357 344 404Z"/>
      <path d="M215 427A306 306 0 0 1 232 372L315 408 332 444 301 446Z"/>
      <path d="M211 446A306 306 0 0 0 209 505L329 500 331 488 308 463Z"/>
      <path d="M210 525A306 306 0 0 0 223 583L283 565 310 551 278 519Z"/>
      <path d="M230 602A306 306 0 0 0 259 656L322 618 349 596 300 579Z"/>
      <path d="M270 673A306 306 0 0 0 307 713L367 662 374 641 338 629Z"/>
      <path d="M322 726A306 306 0 0 0 359 752L413 685 380 675Z"/>
      <path d="M375 762A306 306 0 0 0 406 776L442 733 449 705 422 704Z"/>
      <path d="M424 783A306 306 0 0 0 468 794L493 757 497 731 484 731 466 761 449 754Z"/>
      <path d="M488 797A306 306 0 0 0 523 800L534 776 529 752 512 753 510 766Z"/>
      <path d="M544 799A306 306 0 0 0 578 795L575 775 556 774Z"/>
      <path d="M605 788A306 306 0 0 0 627 782L624 779 613 787Z"/>
    </g>
    <g fill="#F12218">
      <path d="M563 195A306 306 0 0 1 724 266L592 395 543 379 531 298Z"/>
      <path d="M754 297A306 306 0 0 1 819 547L646 495 608 409Z"/>
      <path d="M809 583A306 306 0 0 1 673 758L605 586 643 523Z"/>
    </g>
  </svg>
  <text x="74" y="94" fill="#101217" font-family="Arial, sans-serif" font-size="22" font-weight="700" letter-spacing="4">COUNTERPICK FOR WINDOWS</text>
  <text x="70" y="235" fill="#101217" font-family="Arial Black, Arial, sans-serif" font-size="74" font-weight="900" letter-spacing="-5">THE DRAFT</text>
  <text x="70" y="315" fill="#F12218" font-family="Arial Black, Arial, sans-serif" font-size="74" font-weight="900" letter-spacing="-5">MOVES.</text>
  <text x="74" y="408" fill="#101217" font-family="Arial, sans-serif" font-size="25" font-weight="700">Three explained picks. Inside your live draft.</text>
  <rect x="74" y="475" width="280" height="62" rx="31" fill="#101217"/>
  <text x="114" y="515" fill="#F9F6F0" font-family="Arial, sans-serif" font-size="20" font-weight="700">COUNTERPICK</text>
</svg>
